<?xml version="1.0" encoding="UTF-8"?>
<svg id="Layer_1" data-name="Layer 1" xmlns="http://www.w3.org/2000/svg" viewBox="0 0 577.59 288.23">
  <defs>
    <style>
      .cls-1 {
        fill: #f86408;
      }
    </style>
  </defs>
  <path class="cls-1" d="M549.73,278.46c-13.5,8.96-25.58,9.75-41.23,9.73-27.21-.04-54.5-4.53-75.08-22.68-23.29-20.54-28.28-41.36-48.65-53.42-13.36-7.91-29.43-12.28-44.97-10.47l-43.69,5.07c-28.28,3.28-55.95,4.81-84.35,4.7l-10.4-.04c-23.52-.09-46.39-1.98-69.74-5.12-.94-.13-2.14-.27-3.54-.45-11.69-1.44-11.04-18.6.72-19.16.07,0,.15,0,.22-.01l54.52-2.69,28.68-1.15,17.27-.85,20.8-1.02,10.93-1.03c25.96-2.44,58.53-3.58,79.42-20.98,20.13-16.77,27.75-31.7,41.61-53.26,12.34-19.19,25.15-37.51,42.27-52.62,29.59-26.12,63.74-43.13,103.97-39.37,12.24,1.14,23.64,4.78,32.82,12.42,7.79,6.48,10.34,15.82,6.74,25.53-7.12,19.2-41.98,32.09-60.59,37.68-17.06,5.12-33.55,9.51-50.25,15.67-9.95,3.67-19.17,8.65-26.95,15.59-5.37,4.79-11.76,18.23-3.17,22.95,11.39,6.25,69.04-1.48,82.58-5.02,8.66-2.26,41.65-4.81,47.07,3.18,3.64,5.38,4.42,17.12-11.23,19.74-25.72,4.31-101.79-3.81-111.35,10.88-3.24,4.97-4.25,10.92-1.19,15.91,2.78,4.52,14.72,12.65,19.53,15.43.86.49,1.82,1.03,2.88,1.59,21.1,11.23,44.67,16.95,68.57,17.1,12.47.08,26.32,1.14,35.68,4.71,10.51,4.02,13.83,5.93,14.47,15.7.38,5.81-1.17,11.26-4.58,16.28-5.42,8-13.15,15.06-19.79,19.47Z"/>
  <path class="cls-1" d="M308.7,288.23c-2.33.02-4.94-2.25-4.94-4.86v-60.51c0-1.59,1.73-6.01,3.41-6.25l35.95-5.03c2.67-.37,4.67,1.57,4.74,3.93l.76,23.88,2.4,48.54-42.32.3Z"/>
  <path class="cls-1" d="M158.68,287.87l-38.97.26c-.75-3.64-1.01-6.87-1-10.52l.15-59.71c5.8-.93,10.11-.5,15.34.09l17.16,1.92c2.42.27,5.2.96,7.27,2.67l.05,65.29Z"/>
  <path class="cls-1" d="M542.47,282.77c4.86-2.03,14.05-5.77,21.33-13.55,6.45-6.89,16.07-17.88,13.3-29.02-2.68-10.78-16.21-16.25-20.83-16.89-10.98-1.53-28.13-.11-32.77.17"/>
  <path class="cls-1" d="M343.96,146.51c-11.4,5.62-23.65,19.89-36.92,19.91-.14-38.47,1.83-77.11-15.85-84.77-19.45-8.42-51.57,48.62-59.32,80.29-7.75-31.67-39.87-88.71-59.32-80.29-17.68,7.66-13.89,53.57-14.03,92.04-12.33,2.09-26.54,4.2-39.81,4.18.33-30.83.57-59.33.04-76.81-.22-7.34-.82-21.69,5.12-38.83,1.38-3.99,2.07-5.98,3.3-8.17,9.75-17.42,38.1-25.88,61.27-20.49,28.63,6.66,41.56,32.64,43.43,36.56,1.87-3.92,14.8-29.9,43.43-36.56,23.17-5.39,51.52,3.07,61.27,20.49,1.23,2.19,1.92,4.18,3.3,8.17,5.94,17.14,5.34,31.49,5.12,38.83-.53,17.48-1.37,14.62-1.04,45.45Z"/>
</svg>